Air Force One 1997 BRRip H264 AAC-MS.mp4
      Format : MPEG-4
      Format profile : Base Media
      Codec ID : isom
      File size : 1.74 GiB
      Duration : 2h 4mn
      Overall bit rate : 1 998 Kbps
     
   Video #1
      Format : AVC
      Format/Info : Advanced Video Codec
      Format profile : High@L4.1
      Format settings, CABAC : Yes
      Format settings, ReFrames : 3 frames
      Codec ID : avc1
      Codec ID/Info : Advanced Video Coding
      Duration : 2h 4mn
      Bit rate mode : Variable
      Bit rate : 1 800 Kbps
      Maximum bit rate : 7 446 Kbps
      Width : 1 280 pixels
      Height : 532 pixels
      Display aspect ratio : 2.406
      Frame rate mode : Constant
      Frame rate : 23.976 fps
      Resolution : 24 bits
      Colorimetry : 4:2:0
      Scan type : Progressive
      Bits/(Pixel*Frame) : 0.110
      Stream size : 1.57 GiB (90%)
      Writing library : x264 core 98 r1649 c54c47d
     
      
   Audio #2
      Format : AAC
      Format/Info : Advanced Audio Codec
      Format version : Version 4
      Format profile : LC
      Format settings, SBR : No
      Codec ID : 40
      Duration : 2h 4mn
      Bit rate mode : Variable
      Bit rate : 192 Kbps
      Maximum bit rate : 318 Kbps
      Channel(s) : 6 channels
      Channel positions : Front: L C R, Rear: L R, LFE
      Sampling rate : 48.0 KHz
      Resolution : 16 bits
      Stream size : 174 MiB (10%)


SCREEN: 
http://i865.photobucket.com/albums/ab211/revisionx/Screenshot/vlcsnap-332812.jpg 
http://i865.photobucket.com/albums/ab211/revisionx/Screenshot/vlcsnap-333046.jpp 
http://i865.photobucket.com/albums/ab211/revisionx/Screenshot/vlcsnap-329905.jpg
